<svg width="100%" height="100%" viewBox="0 0 11 11" fill="none" xmlns="http://www.w3.org/2000/svg">
<path d="M6.72228 1.22226C6.38476 1.22226 6.1111 0.948593 6.1111 0.611076C6.1111 0.27356 6.38476 0 6.72228 0H10.3889C10.551 0 10.7064 0.06435 10.821 0.179035C10.9355 0.293619 11 0.449033 11 0.611074V4.27774C11 4.61526 10.7264 4.88892 10.3889 4.88892C10.0514 4.88892 9.77775 4.61526 9.77775 4.27774V2.08644L4.09889 7.76558C3.86021 8.00416 3.47328 8.00416 3.23461 7.76558C2.99593 7.5269 2.99593 7.13997 3.23461 6.90129L8.91373 1.22241L6.72228 1.22226ZM0 2.44441C0 1.7694 0.547247 1.22226 1.22225 1.22226H4.27762C4.61513 1.22226 4.8888 1.49582 4.8888 1.83333C4.8888 2.17085 4.61513 2.44441 4.27762 2.44441H1.22225V9.77774H8.55555V6.72236C8.55555 6.38485 8.82911 6.11118 9.16663 6.11118C9.50414 6.11118 9.7777 6.38485 9.7777 6.72236V9.77774C9.7777 10.4528 9.23056 11 8.55555 11H1.22225C0.547247 11 0 10.4528 0 9.77774V2.44441Z" fill="#ea494a"/>
</svg>