<svg xmlns="http://www.w3.org/2000/svg" id="Layer_2" data-name="Layer 2" viewBox="0 0 1103.82 202.43"><g id="Layer_1-2" data-name="Layer 1"><g><path d="m300.2,95.19c.11,3.41-2.59,6.26-6.01,6.33-3.27.07-5.95-2.61-6.01-6.01-.06-3.43,2.66-6.35,5.97-6.38,3.18-.03,5.94,2.74,6.04,6.06Z" style="fill: #ea494a;"/><path d="m292.87,128.65c4.7-.04,7.16,2.14,7.13,6.26-.03,3.8-2.51,5.9-6.97,5.9-30.17,0-60.33,0-90.5,0v-.04c-30.08,0-60.16,0-90.25-.03-1.39,0-2.89-.17-4.13-.72-2.49-1.11-3.72-4.19-3.03-6.83.68-2.63,3.16-4.45,6.29-4.47,6.81-.03,13.62,0,20.43.01,49.64.03,99.28.06,148.92.08,4.04,0,8.08-.14,12.11-.18Z" style="fill: #ea494a;"/><path d="m289.58,52.41c.75.58,1.51,1.13,2.54,1.9-2.27,2.15-4.08,3.86-6.1,5.78-1.68-1.97-3.19-3.75-4.79-5.64-2.95,2.75-5.83,5.42-8.86,8.23,3.19,3.53,6.3,6.97,9.51,10.52-1.72,1.5-3.32,2.89-5.1,4.43-7.1-7.65-14.1-15.21-21.21-22.88,2.04-1.83,3.96-3.54,5.96-5.34,1.37,1.48,2.58,2.84,3.84,4.13,2.2,2.24,3.36,2.33,5.97.54.45-.31.91-.64,1.3-1.03.61-.6,1.16-1.26,1.93-2.11-1.37-1.33-2.66-2.58-3.96-3.83-1.3-1.26-2.61-2.5-3.91-3.74q4.27-5.25,9.33-1.34c4.51,3.47,9.03,6.92,13.55,10.38Z" style="fill: #ea494a;"/><path d="m288.31,40.13c-1.45,1.37-3.02,2.86-4.97,4.7-2.69-3.05-5.19-5.88-7.88-8.95,1.16-1.37,2.55-3.02,4.18-4.95,3,3.17,5.74,6.08,8.67,9.19Z" style="fill: #ea494a;"/><path d="m256.57,147.06h19.74c-7.27,24.02-23.12,39.82-46.24,49.29h24.31c1.03,0,2.08-.08,3.09.08,1.51.23,3.05,1.09,2.65,2.68-.27,1.05-1.83,1.82-2.89,2.59-.31.23-.93.04-1.41.04-35.39-.01-70.78-.03-106.16-.04-.63,0-1.5.22-1.85-.1-1.02-.92-2.47-2.01-2.58-3.14-.15-1.52,1.37-2.25,3.04-2.22,4.43.08,8.86.09,13.3.1,4.19.02,8.39,0,13.31,0-23.65-9.17-38.18-26.05-46.54-49.23h20.6c.58,5.01,2.14,7.18,4.89,6.89,2.54-.27,3.63-2.61,3.05-6.93h6.69c.28,4.56,1.67,6.91,4.17,7.04,2.34.12,3.46-1.85,4.01-7.14h7.23c.28,5.07,1.64,7.27,4.34,7.06,2.4-.19,3.51-2.49,3.28-7.07h5.69c-.23,4.36,1.2,7.24,3.83,7.07,4.45-.31,3.74-4.06,4.05-7.07h9.72c.36,5.16,1.47,7.08,3.99,7.06,2.36-.01,3.28-1.7,3.88-7.16.5-.05,1.04-.14,1.57-.15,1.09-.02,2.19,0,3.07,0,.48,1.97.69,3.76,1.35,5.35.73,1.74,2.54,2.55,4.12,1.73,1.18-.61,2.36-2.19,2.59-3.49.69-3.97.51-4.01,5.13-3.36.08,3.15.05,7.11,4.29,6.97,3.83-.12,3.69-3.81,3.42-6.95h5.09c.45,4.96,2,7.32,4.61,7.11,2.47-.2,3.57-2.29,3.55-7.02Zm-66.39,41.09c.34-1.86-.49-3.23-2.54-3.6-.54-.1-1.07-.27-1.6-.43-11.62-3.45-21.93-8.94-29.31-18.96-.79-1.07-1.64-2.15-2.6-3.05-1.85-1.74-4.82-.88-5.04,1.62-.13,1.47.49,3.32,1.4,4.52,4.7,6.22,10.12,11.69,16.98,15.64,5.97,3.44,12.36,5.59,18.61,6.94,2.4.09,3.77-.82,4.1-2.67Z" style="fill: #ea494a;"/><path d="m260.03,94.25c12.1,5.72,16.26,16.19,16.03,29.21h-9.74c-.19-2.07-.31-4.1-.55-6.1-.98-8.17-7.49-14.99-15.62-16.23-1.34-.2-1.69-.75-2.2-1.9-1.55-3.51-3.06-7.12-5.19-10.28-4.43-6.54-16.63-8.78-24.41-3.68-1.15-1.37-2.27-2.79-3.48-4.12-7.05-7.73-19.1-7.49-26.56,2.11-.81,1.05-1.3,2.36-3.11,1.42-10.43-5.44-24.41-1-27.9,13.88-.19.84-.38,1.69-.57,2.5-13.51,3.25-16.7,7.25-17.74,22.41-2.94,0-5.91.06-8.87-.07-.33-.01-.84-1.03-.89-1.61-1.04-12.18,5.6-23.73,16.7-28.18,2.79-1.12,4.13-2.64,5.28-5.23,5.37-12.03,17.76-17.78,30.64-14.39,1.31.35,2.12.22,3.12-.72,10.63-9.95,24.45-9.96,35.11-.03.93.86,1.6.98,2.85.67,11.85-2.98,24.2,1.76,29.85,13.11,1.68,3.39,3.69,5.55,7.25,7.23Z" style="fill: #ea494a;"/><path d="m252.77,36.3c.02,2.95-2.64,5.65-5.57,5.67-2.97.01-5.71-2.76-5.72-5.81-.01-3.01,2.56-5.6,5.57-5.63,3.06-.03,5.7,2.63,5.71,5.77Z" style="fill: #ea494a;"/><path d="m221.15,90.51c16.52-.36,31.44,18.66,25.67,33.1-2.14-.1-4.31-.2-6.51-.31-.22-3.02-.07-5.98-.71-8.77-1.58-6.91-5.67-11.82-12.55-14.18-.61-.21-1.39-.57-1.65-1.09-1.5-2.9-2.86-5.87-4.25-8.76Z" style="fill: #ea494a;"/><path d="m229.53,30.07c5.89,7.8,5.35,15.67.21,23.57-.56.86-1.09,1.74-1.55,2.66-1.29,2.52-2.96,3.29-5.07,2.29-2.61-1.24-3.99-4.49-2.77-6.73.56-1.03,1.34-1.95,2.01-2.92,2.9-4.15,3.34-8.43.63-12.86-.87-1.42-1.74-2.82-2.61-4.24-2.91-4.71-3.53-9.55-.92-14.62.65-1.27,1.24-2.57,1.74-3.9.76-1.99.75-3.9-.25-5.94-.5-1.02-.7-3.11-.13-3.55,1.15-.9,3.02-1.57,4.41-1.32,3.41.63,5.39,4.03,5.5,9.46-.42,1.16-.91,3.35-1.96,5.25-2.5,4.52-2.34,8.72.77,12.84Z" style="fill: #ea494a;"/><path d="m221.95,109.2c3.14.13,5.71,2.65,5.5,5.64-.06.91-.79,1.77-1.21,2.65-.68-.39-1.47-.67-2.03-1.19-1.49-1.37-2.84-1.37-4.39-.06-.65.55-1.85,1.24-2.38.98-.72-.35-1.02-1.54-1.21-1.88.08-3.65,2.81-6.27,5.73-6.15Z" style="fill: #ea494a;"/><path d="m211.57,92c4.76,2.73,7.26,7.03,7.54,12.89-2.17,0-4.14.08-6.09-.06-.52-.03-1.22-.63-1.46-1.14-1.92-4.08-5.07-6.11-9.37-5.91-3.9.18-7.26,2.88-8.54,6.91h-7.02c.35-5.6,2.84-9.87,7.36-12.65,5.73-3.51,11.8-3.35,17.57-.04Z" style="fill: #ea494a;"/><path d="m211.9,37.65c1.16,4.1.21,8.12-1.75,11.88-.81,1.54-1.56,3.11-2.4,4.63-1.51,2.73-3.86,3.52-6.07,2.11-2.83-1.8-3.51-4.75-1.52-7.26,1.94-2.44,3.46-5.13,2.91-8.24-.43-2.41-1.6-4.72-2.61-6.99-1.18-2.66-2.73-5.16-3.77-7.85-1.27-3.28-.47-6.53.93-9.65.61-1.37,1.27-2.73,1.73-4.15.66-2.01.82-4.06-.65-5.85-1.18-1.43-2.15-2.87-.61-4.61,1.52-1.73,3.42-1.92,5.39-.98,3.32,1.59,4.73,4.49,5.17,7.98.06.47,0,.95,0,1.42.12.04.25.07.37.11-.63,2.1-.93,4.36-1.94,6.26-2.54,4.79-1.73,9.01,1.12,13.35,1.58,2.4,2.92,5.09,3.7,7.85Z" style="fill: #ea494a;"/><path d="m205.9,110.21c1.88,1.44,2.84,4.08,2.01,5.87-.46,1-1.11,2.13-2.47,1-3.07-2.54-3.41-2.54-6.57.55-2.27-1.99-2.46-4.24-.65-6.5,1.83-2.27,5.37-2.7,7.69-.92Z" style="fill: #ea494a;"/><path d="m187.64,184.55c2.04.36,2.88,1.74,2.54,3.6-.33,1.85-1.71,2.76-4.1,2.67-6.24-1.35-12.63-3.5-18.61-6.94-6.86-3.95-12.27-9.42-16.98-15.64-.91-1.2-1.53-3.05-1.4-4.52.22-2.5,3.19-3.35,5.04-1.62.96.91,1.81,1.98,2.6,3.05,7.38,10.02,17.69,15.51,29.31,18.96.52.16,1.05.34,1.6.43Z" style="fill: #ea494a;"/><path d="m188.7,34.39c2.25,4.36,2.77,8.95.93,13.51-1.26,3.13-2.98,6.08-4.63,9.03-1.42,2.54-3.47,3.04-5.7,1.62-2.29-1.46-3.21-4.55-1.92-6.58.76-1.2,1.69-2.29,2.4-3.52,2.43-4.2,2.49-8.4-.22-12.52-.86-1.32-1.75-2.63-2.58-3.98-2.67-4.36-3.65-8.87-1.16-13.69.54-1.05.91-2.19,1.46-3.23,1.33-2.49,1.18-4.84-.45-7.12-1.03-1.43-1.33-2.89,0-4.3,1.27-1.36,2.79-1.59,4.54-.92,3.46,1.32,5.73,5.09,5.67,10.65-.42,1.16-1.02,3.37-1.99,5.39-1.93,3.99-1.37,7.63.98,11.19.95,1.45,1.87,2.93,2.67,4.47Z" style="fill: #ea494a;"/><path d="m184.46,109.36c2.56.65,4.55,2.75,4.42,5.15-.05,1.02-.93,2.01-1.44,3-.68-.4-1.47-.7-2.03-1.23-1.53-1.46-3.04-1.55-4.5-.06-.43.44-.73,1.02-1.04,1.46-2.56-1.68-3.05-3.6-1.76-5.81,1.22-2.1,3.85-3.14,6.35-2.5Z" style="fill: #ea494a;"/><path d="m157.92,122.32c-2.52-17.3,9.82-32.71,27.12-32.09-1.32,2.87-2.63,5.8-4.05,8.68-.23.48-.86.95-1.39,1.06-8.56,1.84-14.34,9.7-14.29,19.33,0,1.33,0,2.66,0,4.29-2.13,0-4.1.08-6.04-.06-.5-.04-1.28-.74-1.35-1.22Z" style="fill: #ea494a;"/><path d="m160.39,30.62c2.96-.02,5.81,2.8,5.78,5.74-.03,2.89-2.71,5.65-5.56,5.72-3.05.08-5.74-2.69-5.8-5.96-.05-3.06,2.39-5.47,5.58-5.5Z" style="fill: #ea494a;"/><path d="m156.76,51.54c-1.78,1.94-3.22,3.5-4.83,5.25-2.73-2.86-5.26-5.51-7.82-8.2-1.28,1.15-2.15,1.94-2.99,2.69,2.42,5.78,2.04,8.79-1.28,11.17-3.8,2.72-7.65,1.26-11.76.42,2.4,2.58,4.8,5.14,7.45,7.99-1.53,1.67-3.04,3.32-4.31,4.72-3.73-3.5-7.3-6.82-10.82-10.19-3.48-3.32-6.9-6.7-10.29-10,1.79-1.94,3.34-3.6,5.01-5.41,1.17,1.23,2.12,2.27,3.11,3.27,2.93,2.96,7.18,3.07,10.39.39,1.59-1.33,1.92-2.55.27-4.08-1.79-1.67-3.5-3.42-5.21-5.11,1.67-1.63,3.23-3.15,5.02-4.89,2.06,1.96,4.26,3.96,6.37,6.05.97.96,1.66,1.83,3.04.38,1.16-1.22,1.09-1.94-.05-3.09-3.6-3.63-7.1-7.37-10.76-11.19,1.6-1.52,3.18-3.02,4.4-4.19,8.43,8.08,16.7,16,25.07,24.02Z" style="fill: #ea494a;"/><path d="m110.94,89.13c3.3-.06,6.12,2.81,6.11,6.24-.01,3.49-2.52,6.11-5.88,6.12-3.32,0-6.14-2.81-6.19-6.2-.04-3.25,2.7-6.09,5.96-6.15Z" style="fill: #ea494a;"/><path d="m39.63,122c3.35.07,6.49,3.04,6.47,5.79-.02,3.09-3.11,6.03-6.64,6.04-11.05.06-22.09.06-33.13-.01-3.71-.03-6.18-2.51-6.17-5.85,0-3.61,2.11-5.8,6.03-5.88,5.63-.12,11.26-.03,16.88-.03v-.08c5.52,0,11.05-.08,16.56.03Z" style="fill: #ea494a;"/><path d="m34.75,98.55c3.29.03,6.24,2.69,6.22,5.53-.02,3.01-2.73,5.55-6.13,5.58-8.81.06-17.62.08-26.44.04-1.35,0-2.79-.17-4.04-.66-2.54-1.01-4.29-2.85-4.01-5.81.24-2.47,2.85-4.53,5.73-4.58,4.88-.08,9.77-.02,14.65-.02v-.08c4.67,0,9.34-.03,14.01,0Z" style="fill: #ea494a;"/><path d="m40.69,152.94c.1,2.9-2.79,5.95-6.57,5.83-8.93-.28-17.87-.03-26.8-.13-4.86-.06-7.81-3.55-6.57-7.51.92-2.95,3.32-3.69,6.01-3.73,4.68-.06,9.36-.02,14.04-.02v-.02c4.47,0,8.94-.04,13.41.01,3.78.04,6.38,2.38,6.49,5.57Z" style="fill: #ea494a;"/></g><g><path d="m443.7,65.46h-100.32c-4.75,0-6.84,2.09-6.84,6.84v22.99c0,4.75,2.09,6.84,6.84,6.84h27.93v93.29c0,4.75,2.09,6.84,6.84,6.84h30.78c4.75,0,6.84-2.09,6.84-6.84v-93.29h27.93c4.75,0,6.84-2.09,6.84-6.84v-22.99c0-4.75-2.09-6.84-6.84-6.84Z" style="fill: #ea494a; stroke: #000; stroke-linecap: round; stroke-linejoin: round; stroke-width: .32px;"/><path d="m580.12,65.46h-29.45c-4.75,0-6.84,2.09-6.84,6.84v41.23h-31.73v-41.23c0-4.75-2.09-6.84-6.84-6.84h-29.45c-4.75,0-6.84,2.09-6.84,6.84v123.12c0,4.75,2.09,6.84,6.84,6.84h29.45c4.75,0,6.84-2.09,6.84-6.84v-42.18h31.73v42.18c0,4.75,2.09,6.84,6.84,6.84h29.45c4.75,0,6.84-2.09,6.84-6.84v-123.12c0-4.75-2.09-6.84-6.84-6.84Z" style="fill: #ea494a; stroke: #000; stroke-linecap: round; stroke-linejoin: round; stroke-width: .32px;"/><path d="m704.56,71.73c-1.52-4.37-4.56-6.27-9.5-6.27h-51.11c-5.13,0-8.17,1.9-9.69,6.27l-16.53,43.13c-5.13,13.3-7.41,22.8-7.41,30.4v50.16c0,4.75,2.09,6.84,6.84,6.84h27.93c4.75,0,6.84-2.09,6.84-6.84v-26.6h33.63v26.6c0,4.75,2.28,6.84,7.41,6.84h28.69c4.75,0,6.84-2.09,6.84-6.84v-50.16c0-7.6-2.28-17.1-7.41-30.4l-16.53-43.13Zm-50.73,62.51l8.93-28.88c.95-2.28,2.09-3.23,3.61-3.23h4.75c1.52,0,2.66.95,3.61,3.23l8.93,28.88h-29.83Z" style="fill: #ea494a; stroke: #000; stroke-linecap: round; stroke-linejoin: round; stroke-width: .32px;"/><path d="m855.42,128.73h-27.55c-4.75,0-6.84,2.09-6.84,6.84v30.78h-26.03v-94.05c0-4.75-2.09-6.84-6.84-6.84h-29.45c-4.75,0-6.84,2.09-6.84,6.84v123.12c0,4.75,2.09,6.84,6.84,6.84h96.71c4.75,0,6.84-2.09,6.84-6.84v-59.85c0-4.75-2.09-6.84-6.84-6.84Z" style="fill: #ea494a; stroke: #000; stroke-linecap: round; stroke-linejoin: round; stroke-width: .32px;"/><path d="m968.66,65.46h-80.94c-4.75,0-6.84,2.09-6.84,6.84v22.99c0,4.75,2.09,6.84,6.84,6.84h18.81v63.84h-18.81c-4.75,0-6.84,2.09-6.84,6.84v22.61c0,4.75,2.09,6.84,6.84,6.84h80.94c4.75,0,6.84-2.09,6.84-6.84v-22.61c0-4.75-2.09-6.84-6.84-6.84h-18.43v-63.84h18.43c4.75,0,6.84-2.09,6.84-6.84v-22.99c0-4.75-2.09-6.84-6.84-6.84Z" style="fill: #ea494a; stroke: #000; stroke-linecap: round; stroke-linejoin: round; stroke-width: .32px;"/><path d="m1080.9,132.53c5.32,0,10.63.02,15.95,0,4.45-.03,6.87-2.25,6.81-6.18-.05-3.27-2.83-5.63-6.8-5.62-10.74,0-21.47.05-32.21.13-4.09.03-6.92,2.35-6.88,5.47.04,3.26,3.41,6.18,7.19,6.2,5.32.02,10.63,0,15.95,0Z" style="fill: #ea494a; stroke: #000; stroke-linecap: round; stroke-linejoin: round; stroke-width: .32px;"/><path d="m1096.98,146.04c-.42-.02-.85-.01-1.28-.01-9.14-.01-18.29-.03-27.43-.03-4.02,0-6.7,2.22-6.75,5.53-.05,3.17,2.86,5.73,6.71,5.77,4.68.05,9.36.01,14.03.01v.04c4.89,0,9.78.09,14.67-.03,3.79-.09,6.4-2.61,6.32-5.79-.08-2.99-2.76-5.33-6.28-5.49Z" style="fill: #ea494a; stroke: #000; stroke-linecap: round; stroke-linejoin: round; stroke-width: .32px;"/><path d="m1067.7,108.27c4.89.05,9.79.01,14.69.01,4.9,0,9.79.02,14.69,0,3.63-.02,6.15-2.23,6.24-5.38.09-3.22-2.53-5.7-6.28-5.71-9.79-.04-19.58-.04-29.37,0-3.51.02-6.4,2.49-6.43,5.32-.03,2.95,3.01,5.72,6.47,5.76Z" style="fill: #ea494a; stroke: #000; stroke-linecap: round; stroke-linejoin: round; stroke-width: .32px;"/></g></g></svg>